<?xml version="1.0" encoding="utf-8"?>
<!-- Generator: Adobe Illustrator 27.1.1, SVG Export Plug-In . SVG Version: 6.00 Build 0)  -->
<!DOCTYPE svg PUBLIC "-//W3C//DTD SVG 1.1//EN" "http://www.w3.org/Graphics/SVG/1.1/DTD/svg11.dtd" [
	<!ENTITY ns_extend "http://ns.adobe.com/Extensibility/1.0/">
	<!ENTITY ns_ai "http://ns.adobe.com/AdobeIllustrator/10.0/">
	<!ENTITY ns_graphs "http://ns.adobe.com/Graphs/1.0/">
	<!ENTITY ns_vars "http://ns.adobe.com/Variables/1.0/">
	<!ENTITY ns_imrep "http://ns.adobe.com/ImageReplacement/1.0/">
	<!ENTITY ns_sfw "http://ns.adobe.com/SaveForWeb/1.0/">
	<!ENTITY ns_custom "http://ns.adobe.com/GenericCustomNamespace/1.0/">
	<!ENTITY ns_adobe_xpath "http://ns.adobe.com/XPath/1.0/">
]>
<svg version="1.1" id="Layer_1" xmlns:x="&ns_extend;" xmlns:i="&ns_ai;" xmlns:graph="&ns_graphs;"
	 xmlns="http://www.w3.org/2000/svg" xmlns:xlink="http://www.w3.org/1999/xlink" x="0px" y="0px" viewBox="0 0 845 585.1"
	 style="enable-background:new 0 0 845 585.1;" xml:space="preserve">
<style type="text/css">
	.st0{fill:#05DD4D;}
	.st1{fill:#FFFFFF;}
</style>
<metadata>
	<sfw  xmlns="&ns_sfw;">
		<slices></slices>
		<sliceSourceBounds  bottomLeftOrigin="true" height="585.1" width="845" x="0" y="-585.1"></sliceSourceBounds>
	</sfw>
</metadata>
<g>
	<path class="st0" d="M407.4,74.1c0-27.9-20.1-45.7-48.5-45.7S308.8,49,308.8,79.1s21.7,51.3,58,51.3H428
		c86.4,0,142.7,58.5,142.7,134.9c0,76.9-58,134.9-137.1,134.9c-80.8,0-137.1-55.7-137.1-132.6c0-27.9,9.5-57.4,24-79.1h32.9
		c-16.7,21.7-25.6,49-25.6,76.9c0,60.7,44,105.9,105.9,105.9S539.5,326,539.5,265.3s-44-105.9-111.5-105.9h-60.7
		c-60.7,0-89.2-36.2-89.2-80.2c0-43.5,36.2-79.1,80.8-79.1C408,0,438,32.9,438,71.3c0,4.7-0.5,10.9-2,15h-30.4
		C406.7,83,407.4,77.5,407.4,74.1z"/>
	<path class="st1" d="M344.8,537.1c-1,0-1.6,0.8-1.6,1.8c1.2,18.6,14.4,32.8,32.6,32.8c14.8,0,23.8-6.2,28.4-16H419
		c-5.6,19.2-22.4,29.4-43.2,29.4c-30,0-47.4-21.6-47.4-52.8c0-28.8,20-51.2,47.2-51.2c26.2,0,44.6,18.6,44.6,46c0,3,0,6.2-0.4,10
		H344.8z M574.2,568.7h12.4v13.4h-12.2c-23.4,0-31.2-10.2-31.2-29.4v-53.6c0-1.4-0.8-2-2.2-2h-14.6v-13.4H541c1.4,0,2.2-0.6,2.2-2
		v-26.6H558v26.6c0,1.4,0.6,2,2,2h26.6v13.4H560c-1.4,0-2,0.6-2,2v55.2C558,566.1,560.4,568.7,574.2,568.7z M811.8,480.9
		c19.8,0,33.2,13.4,33.2,35.6v65.6h-15v-61.2c0-16.4-7.2-26.2-22.8-26.2c-16,0-26,11.6-26,28.4v59h-14.8v-61.2
		c0-16.4-7.4-26.2-23-26.2c-16,0-26,12.4-26,28.4v59h-14.8v-98.4h14.2v13.6c0,1.6,1.6,1.8,2.4,0.6c8-13,17.2-17,29-17
		c12.4,0,23,6,29.4,18.8c0.6,1,2.2,1.2,2.8,0C787.6,486.7,798.2,480.9,811.8,480.9z M634.4,585.1c-20.2,0-33.8-14.2-33.8-36.4v-65
		h15v60.8c0,17.4,8.4,27.2,24.2,27.2c17.4,0,28.6-13.2,28.6-29.2v-58.8h14.8v98.4h-14v-15.8c0-1.8-1.8-2.2-2.6-0.8
		C658.6,580.3,648,585.1,634.4,585.1z M484.8,480.9c20.4,0,34,14,34,36.4v64.8h-15v-60.8c0-17.4-8.4-27.2-24.2-27.2
		c-17.4,0-28.6,13.2-28.6,29.2v58.8h-15v-98.4h14.2v16c0,1.6,1.8,1.8,2.4,0.6C460.8,485.5,471.4,480.9,484.8,480.9z M343.6,523.3
		c0,1.4,1,1.8,2,1.8h57.2c1.4,0,2.2-0.6,2.2-2.2c-0.4-16.8-12.8-28.6-29.4-28.6C358.8,494.3,345.8,506.3,343.6,523.3z M280.8,563.7
		l30-80H326l-38.2,98.4h-16.6L233,483.7h15.6l30,80c0.2,0.6,0.6,0.8,1,0.8C280.2,564.5,280.6,564.3,280.8,563.7z M206.4,442.1v140
		h14.8v-140H206.4z M142,585.1c-28.2,0-48-22-48.8-52.2c-0.8-30.2,21.2-52,48.8-52c28.4,0,49,21.8,49,52S169.8,585.1,142,585.1z
		 M142,494.3c-19.8,0-34,15.4-34,38.6s14.2,38.6,34,38.6c20,0,34-15.4,34-38.6S162,494.3,142,494.3z M39.8,493.7
		c-15.2,0-23.4,6.4-23.4,15.2c0,8,6.6,11.6,18,13.8l18.6,3.6c21,4,29.4,14.8,29.4,29.4c0,18-15,29.4-39.8,29.4
		c-24,0-41.8-10-42.6-33.2h14.6c2,14.8,13.2,20.4,28.6,20.4c14.2,0,23.8-5.2,23.8-15.6c0-9.2-6.2-14.8-19-17l-18.6-3.2
		c-19-3.2-27.6-12.8-27.6-26.4c0-17.2,13.6-29.2,38-29.2c21,0,38,9.8,39.2,30.2H64.6C63,501.1,54.4,493.7,39.8,493.7z"/>
</g>
</svg>
